<?xml version="1.0" standalone="no"?>
<!DOCTYPE svg PUBLIC "-//W3C//DTD SVG 20010904//EN"
 "http://www.w3.org/TR/2001/REC-SVG-20010904/DTD/svg10.dtd">
<svg version="1.0" xmlns="http://www.w3.org/2000/svg"
 width="259.000000pt" height="259.000000pt" viewBox="0 0 259.000000 259.000000"
 preserveAspectRatio="xMidYMid meet">
<metadata>
Created by potrace 1.11, written by Peter Selinger 2001-2013
</metadata>
<g transform="translate(0.000000,259.000000) scale(0.100000,-0.100000)"
fill="#000000" stroke="none">
<path d="M1095 2566 c-474 -79 -858 -397 -1019 -844 -90 -250 -94 -576 -10
-827 62 -186 157 -344 291 -486 192 -202 443 -337 707 -384 114 -19 337 -20
450 0 460 80 850 414 996 853 51 155 63 232 63 412 1 134 -4 185 -22 270 -54
255 -185 488 -376 668 -172 163 -372 270 -605 323 -112 26 -363 34 -475 15z
m155 -196 c0 -78 -1 -80 -24 -80 -21 0 -24 5 -30 58 -4 31 -9 65 -12 74 -5 16
10 24 49 27 15 1 17 -9 17 -79z m206 53 c-2 -10 -8 -46 -11 -80 -7 -62 -7 -63
-33 -57 -15 4 -28 7 -28 8 -1 1 3 34 9 74 10 71 10 72 39 72 23 0 28 -4 24
-17z m-409 -78 c20 -74 20 -75 0 -81 -25 -8 -31 -1 -55 72 l-20 62 22 10 c11
6 24 11 27 11 3 1 15 -33 26 -74z m608 45 c10 0 8 -18 -12 -76 -19 -56 -29
-74 -40 -70 -8 3 -21 6 -28 6 -10 0 -8 18 12 76 19 56 29 74 40 70 8 -3 21 -6
28 -6z m-801 -102 c31 -74 32 -84 10 -92 -20 -8 -15 -14 -54 63 -30 61 -31 65
-14 78 10 7 21 13 24 13 4 0 19 -28 34 -62z m980 19 c17 -13 16 -16 -14 -70
-38 -67 -42 -70 -65 -54 -16 12 -15 17 14 75 17 34 35 62 39 62 5 0 16 -6 26
-13z m-1146 -123 c37 -64 38 -70 15 -78 -11 -5 -23 0 -33 12 -78 97 -76 93
-55 108 30 22 38 17 73 -42z m1325 9 c14 -17 12 -22 -33 -73 -44 -50 -50 -54
-65 -39 -14 14 -12 20 27 72 24 31 46 57 49 57 3 0 13 -8 22 -17z m-799 -85
c43 -20 45 -21 81 -4 34 17 37 16 68 -1 20 -12 36 -31 42 -51 7 -26 14 -32 36
-32 16 0 31 -5 34 -11 4 -6 13 -8 20 -5 8 3 15 -7 19 -29 5 -26 10 -32 26 -28
30 8 70 -39 70 -83 0 -20 5 -54 12 -76 9 -32 9 -44 -2 -61 -8 -13 -9 -22 -3
-24 15 -5 -1 -69 -17 -65 -8 2 -10 -3 -7 -13 4 -8 2 -15 -2 -15 -5 0 -7 -9 -4
-19 3 -13 -4 -27 -22 -43 -15 -13 -47 -64 -72 -115 -44 -89 -46 -95 -50 -205
-3 -69 -1 -137 7 -173 14 -69 17 -94 25 -185 3 -36 12 -85 20 -110 8 -25 17
-67 20 -95 10 -76 11 -79 36 -61 29 20 44 4 43 -47 -2 -67 -68 -107 -174 -107
-76 1 -245 27 -276 43 -16 8 -44 18 -61 22 -18 3 -42 18 -52 32 -11 13 -25 22
-31 18 -6 -4 -10 4 -10 17 0 13 -5 29 -12 36 -9 9 -7 13 5 18 9 3 17 15 17 25
0 10 5 19 10 19 6 0 10 19 10 43 0 23 4 69 9 102 6 33 13 132 16 220 4 88 9
202 12 253 5 92 5 94 -23 124 l-29 31 28 -18 27 -17 0 34 c0 21 -16 66 -40
113 -44 85 -71 178 -65 227 3 17 13 47 23 67 11 20 23 52 27 71 11 53 49 131
79 168 33 39 66 41 130 10z m-680 -52 c25 -30 46 -56 46 -59 0 -3 -7 -8 -16
-11 -18 -7 -114 67 -114 88 0 13 20 36 31 36 4 0 27 -24 53 -54z m1632 -10
c10 -8 17 -16 14 -19 -41 -35 -114 -87 -121 -87 -5 0 -13 8 -16 17 -5 12 8 29
43 60 27 23 52 43 55 43 3 0 14 -6 25 -14z m-1764 -143 c29 -20 54 -38 56 -38
6 -4 -11 -35 -19 -35 -7 0 -95 50 -117 66 -7 5 10 44 19 44 5 0 33 -17 61 -37z
m1888 -28 c16 -19 9 -28 -56 -65 -44 -25 -59 -29 -70 -19 -24 19 -16 33 39 66
60 36 70 38 87 18z m-1980 -145 c57 -29 73 -51 49 -65 -10 -7 -114 30 -132 45
-8 7 8 50 19 50 2 0 31 -14 64 -30z m2068 -57 c3 -18 -6 -24 -62 -43 -69 -23
-86 -21 -86 10 0 13 15 24 58 38 68 25 86 24 90 -5z m-2061 -147 c1 -1 0 -11
-3 -23 -6 -22 -20 -22 -125 -4 -34 6 -35 7 -27 37 l8 31 72 -20 c40 -10 74
-20 75 -21z m2083 -87 c-19 -4 -54 -9 -77 -12 -42 -5 -43 -4 -43 23 0 26 4 30
38 36 20 3 53 9 72 13 33 7 35 6 40 -23 5 -29 3 -31 -30 -37z m-2162 -89 c51
0 52 0 52 -30 l0 -30 -81 0 c-70 0 -80 2 -75 16 3 9 6 25 6 36 0 16 5 19 23
14 12 -3 46 -6 75 -6z m2212 -86 c0 -36 -1 -36 -31 -30 -17 3 -53 6 -80 6 -48
0 -49 1 -49 30 l0 30 80 0 80 0 0 -36z m-2148 -128 c5 -23 1 -25 -71 -38 l-76
-13 -3 23 c-2 13 -2 25 0 27 2 2 33 8 68 13 36 5 68 10 71 11 4 0 9 -10 11
-23z m2116 -61 c2 -2 2 -15 -2 -29 -5 -22 -9 -24 -34 -16 -15 5 -46 14 -69 20
-35 9 -43 15 -43 34 l0 23 72 -14 c39 -7 74 -15 76 -18z m-2073 -129 c0 -13
-18 -25 -63 -43 -68 -28 -67 -28 -76 4 -6 19 0 23 51 41 68 24 88 24 88 -2z
m1953 -47 c34 -11 62 -24 62 -28 0 -4 -6 -16 -14 -26 -13 -18 -15 -18 -67 4
-65 28 -71 33 -63 54 8 21 7 21 82 -4z m-1874 -115 c4 -9 5 -18 4 -19 -2 0
-27 -18 -57 -39 -52 -36 -55 -37 -68 -20 -19 26 -13 36 43 66 57 32 70 34 78
12z m1783 -64 c29 -19 53 -38 53 -41 0 -3 -6 -13 -13 -23 -12 -17 -17 -15 -70
21 -58 39 -65 51 -45 71 14 14 9 16 75 -28z m-1673 -87 c5 -12 -8 -32 -44 -67
-49 -49 -52 -50 -66 -31 -18 25 -18 26 41 74 56 46 60 48 69 24z m1552 -69
c30 -26 54 -50 54 -55 0 -5 -10 -13 -21 -20 -19 -10 -27 -5 -72 39 -43 43 -49
53 -38 66 8 9 16 16 18 16 3 0 29 -21 59 -46z m-1417 -58 c11 -13 -5 -39 -76
-125 -1 -2 -12 4 -23 14 -19 17 -19 18 27 71 49 58 55 61 72 40z m1269 -73
l43 -57 -20 -20 c-11 -11 -22 -18 -24 -15 -30 40 -77 111 -77 117 0 9 21 32
30 32 3 0 24 -26 48 -57z m-1098 -39 c0 -12 -61 -124 -68 -124 -5 0 -16 6 -26
13 -16 12 -15 17 19 75 32 54 40 60 56 51 10 -5 19 -12 19 -15z m931 -66 c30
-59 30 -62 13 -75 -27 -20 -34 -13 -62 56 -21 52 -23 65 -11 72 24 15 28 11
60 -53z m-769 7 c12 -5 12 -17 -5 -79 -18 -68 -21 -72 -44 -68 -33 6 -37 21
-17 68 9 21 20 49 25 62 9 23 17 26 41 17z m597 -149 c-2 -2 -13 -6 -25 -10
-19 -6 -23 1 -41 68 l-20 75 21 3 c18 3 25 -8 45 -65 12 -38 21 -70 20 -71z
m-406 37 c-3 -43 -6 -79 -7 -79 0 -1 -16 1 -34 3 -24 4 -31 10 -28 22 2 9 7
42 11 74 6 55 8 57 35 57 l28 0 -5 -77z m192 15 c3 -35 9 -71 11 -80 4 -15 -1
-18 -30 -18 l-36 0 0 80 c0 78 1 80 24 80 22 0 25 -5 31 -62z"/>
<path d="M1084 2065 c-14 -25 -24 -48 -21 -51 3 -3 8 4 12 15 10 32 22 25 17
-9 -5 -34 7 -38 43 -14 16 11 34 14 55 9 18 -4 30 -3 30 3 0 6 3 17 6 26 10
25 -40 66 -80 66 -31 0 -38 -5 -62 -45z"/>
<path d="M1293 2082 c-18 -8 -34 -23 -35 -31 -6 -62 -5 -69 10 -63 10 4 13 1
8 -7 -10 -15 21 -51 44 -51 21 0 50 31 50 53 0 9 5 19 11 22 10 7 3 64 -10 76
-15 16 -49 16 -78 1z"/>
<path d="M1045 1990 c-3 -5 0 -10 7 -10 8 0 6 -5 -4 -11 -19 -11 -25 -39 -8
-39 12 0 30 33 30 54 0 18 -16 21 -25 6z"/>
<path d="M1077 1925 c-41 -36 -78 -77 -81 -90 -4 -14 -10 -25 -14 -25 -12 0
14 -153 32 -188 22 -43 74 -84 97 -77 13 5 19 2 17 -7 -2 -9 13 -15 47 -19 47
-5 47 -9 2 -23 -7 -2 -32 -1 -55 4 -51 9 -55 -5 -16 -61 22 -33 32 -38 80 -44
35 -4 54 -11 54 -20 0 -10 -7 -11 -27 -5 -67 21 -102 27 -113 20 -7 -5 -16
-85 -25 -236 -19 -307 -28 -504 -26 -533 2 -35 25 -57 100 -92 72 -34 188 -50
291 -40 l55 6 -2 35 c-1 36 -19 124 -34 174 -5 16 -9 55 -9 86 0 48 -4 60 -21
72 -20 13 -21 15 -5 31 16 15 16 28 0 190 -15 161 -15 179 0 237 15 61 15 65
-3 81 -10 9 -43 22 -73 28 -33 7 -64 21 -74 33 -19 21 -19 21 4 9 13 -7 26
-10 29 -7 3 3 20 0 37 -7 40 -16 111 -8 111 13 0 8 7 14 15 13 20 -3 63 66 95
151 20 53 22 67 11 63 -9 -4 -18 -2 -21 3 -4 6 -18 10 -32 10 -15 0 -35 7 -45
16 -16 15 -98 26 -98 13 0 -3 6 -14 14 -24 11 -16 17 -17 29 -7 12 10 14 9 10
-10 -3 -17 6 -33 31 -57 20 -19 36 -43 36 -54 0 -15 -6 -12 -27 14 -16 18 -45
48 -65 67 -20 18 -40 47 -44 65 -11 53 -22 63 -65 59 -22 -2 -53 1 -68 8 -33
13 -53 6 -111 -42 -43 -35 -62 -37 -30 -3 l23 24 -26 10 c-44 17 -37 26 19 26
63 0 75 11 67 62 -6 38 12 46 21 8 10 -39 50 -75 82 -74 34 1 80 17 52 18 -9
1 -30 13 -47 27 -24 20 -30 31 -25 50 5 20 0 31 -27 55 -18 16 -43 29 -55 29
-14 0 -53 -26 -97 -65z m113 5 c-20 -13 -33 -13 -25 0 3 6 14 10 23 10 15 0
15 -2 2 -10z m85 -174 c9 -13 19 -47 24 -75 7 -42 6 -49 -5 -40 -8 6 -14 26
-14 43 0 18 -7 41 -15 52 -14 18 -20 44 -10 44 2 0 12 -11 20 -24z"/>
<path d="M1407 1972 c-28 -30 -39 -73 -23 -86 19 -16 27 -56 11 -56 -16 0 -29
-35 -20 -50 9 -14 51 -12 63 3 13 16 52 143 52 172 0 15 -8 25 -22 29 -35 9
-44 7 -61 -12z"/>
<path d="M1533 1911 c-15 -10 -39 -54 -52 -93 -23 -69 27 -107 67 -50 24 33
42 95 35 121 -5 20 -34 33 -50 22z"/>
<path d="M1287 1903 c-4 -3 -7 -10 -7 -14 0 -13 59 -41 70 -34 13 8 13 25 -1
25 -6 0 -17 7 -25 15 -17 16 -27 19 -37 8z"/>
<path d="M1575 1765 c-21 -40 -16 -52 14 -35 21 11 27 35 13 57 -5 8 -14 1
-27 -22z"/>
<path d="M1480 691 c0 -5 5 -13 10 -16 6 -3 10 -2 10 4 0 5 -4 13 -10 16 -5 3
-10 2 -10 -4z"/>
<path d="M1507 558 c7 -39 23 -61 23 -32 0 30 -11 64 -21 64 -5 0 -6 -15 -2
-32z"/>
</g>
</svg>
